<?xml version="1.0" encoding="UTF-8" standalone="no"?>
<!DOCTYPE svg PUBLIC "-//W3C//DTD SVG 1.1//EN" "http://www.w3.org/Graphics/SVG/1.1/DTD/svg11.dtd">
<svg width="100%" height="100%" viewBox="0 0 777 225" version="1.1" xmlns="http://www.w3.org/2000/svg" xmlns:xlink="http://www.w3.org/1999/xlink" xml:space="preserve" xmlns:serif="http://www.serif.com/" style="fill-rule:evenodd;clip-rule:evenodd;stroke-linejoin:round;stroke-miterlimit:2;">
    <g transform="matrix(1,0,0,1,-211.94375,-202.8125)">
        <g transform="matrix(3.928607,0,0,3.928607,-687.98509,-459.400261)">
            <g transform="matrix(76.362946,0,0,76.362946,228.001645,212.056787)">
                <path d="M0.224,0.011C0.197,0.011 0.17,0.008 0.144,0C0.117,-0.007 0.093,-0.017 0.071,-0.03C0.049,-0.044 0.03,-0.059 0.014,-0.078L0.092,-0.157C0.109,-0.138 0.128,-0.124 0.15,-0.115C0.172,-0.105 0.196,-0.1 0.223,-0.101C0.244,-0.1 0.26,-0.104 0.271,-0.11C0.282,-0.116 0.288,-0.125 0.288,-0.137C0.288,-0.15 0.282,-0.161 0.27,-0.168C0.258,-0.175 0.243,-0.181 0.225,-0.186C0.206,-0.192 0.187,-0.197 0.166,-0.203C0.146,-0.209 0.126,-0.218 0.108,-0.228C0.089,-0.239 0.074,-0.253 0.062,-0.272C0.051,-0.29 0.045,-0.314 0.045,-0.343C0.045,-0.374 0.052,-0.401 0.068,-0.423C0.083,-0.446 0.104,-0.463 0.132,-0.476C0.16,-0.488 0.193,-0.495 0.231,-0.495C0.271,-0.495 0.307,-0.488 0.339,-0.474C0.372,-0.46 0.399,-0.439 0.419,-0.411L0.341,-0.332C0.326,-0.35 0.31,-0.363 0.291,-0.371C0.273,-0.379 0.253,-0.383 0.232,-0.383C0.213,-0.383 0.198,-0.38 0.187,-0.374C0.177,-0.368 0.172,-0.36 0.172,-0.349C0.172,-0.337 0.178,-0.328 0.19,-0.321C0.201,-0.315 0.216,-0.309 0.235,-0.304C0.253,-0.299 0.273,-0.293 0.293,-0.287C0.314,-0.28 0.333,-0.271 0.352,-0.26C0.37,-0.249 0.385,-0.234 0.397,-0.215C0.408,-0.197 0.414,-0.172 0.414,-0.143C0.414,-0.095 0.397,-0.058 0.363,-0.03C0.329,-0.003 0.283,0.011 0.224,0.011Z" style="fill:rgb(244,185,66);fill-rule:nonzero;"/>
            </g>
            <g transform="matrix(63.635789,0,0,63.635789,261.887702,212.056787)">
                <path d="M0.326,0.01C0.291,0.01 0.26,0.003 0.232,-0.011C0.204,-0.025 0.181,-0.045 0.165,-0.07C0.148,-0.095 0.139,-0.123 0.138,-0.154L0.138,-0.326C0.139,-0.358 0.148,-0.386 0.165,-0.411C0.182,-0.437 0.204,-0.457 0.232,-0.471C0.26,-0.486 0.292,-0.493 0.326,-0.493C0.371,-0.493 0.411,-0.482 0.446,-0.46C0.481,-0.438 0.509,-0.408 0.529,-0.37C0.55,-0.332 0.56,-0.289 0.56,-0.241C0.56,-0.193 0.55,-0.151 0.529,-0.113C0.509,-0.075 0.481,-0.045 0.446,-0.023C0.411,-0.001 0.371,0.01 0.326,0.01ZM0.058,0.203L0.058,-0.483L0.189,-0.483L0.189,-0.356L0.167,-0.239L0.188,-0.121L0.188,0.203L0.058,0.203ZM0.303,-0.111C0.327,-0.111 0.349,-0.117 0.367,-0.128C0.385,-0.139 0.4,-0.154 0.41,-0.174C0.421,-0.193 0.426,-0.216 0.426,-0.242C0.426,-0.267 0.421,-0.29 0.41,-0.309C0.4,-0.329 0.385,-0.344 0.367,-0.355C0.349,-0.366 0.327,-0.372 0.303,-0.372C0.279,-0.372 0.258,-0.366 0.24,-0.355C0.221,-0.344 0.207,-0.329 0.196,-0.309C0.186,-0.29 0.181,-0.267 0.181,-0.242C0.181,-0.216 0.186,-0.193 0.196,-0.174C0.206,-0.154 0.221,-0.139 0.239,-0.128C0.258,-0.117 0.279,-0.111 0.303,-0.111Z" style="fill:rgb(244,185,66);fill-rule:nonzero;"/>
            </g>
            <g transform="matrix(63.635789,0,0,63.635789,299.273728,212.056787)">
                <path d="M0.264,0.011C0.221,0.011 0.184,0.001 0.151,-0.017C0.118,-0.035 0.092,-0.06 0.073,-0.092C0.055,-0.124 0.045,-0.161 0.045,-0.203L0.045,-0.483L0.177,-0.483L0.177,-0.206C0.177,-0.186 0.18,-0.169 0.187,-0.155C0.194,-0.14 0.204,-0.13 0.217,-0.122C0.23,-0.114 0.246,-0.111 0.264,-0.111C0.291,-0.111 0.313,-0.119 0.328,-0.136C0.343,-0.152 0.351,-0.176 0.351,-0.206L0.351,-0.483L0.482,-0.483L0.482,-0.203C0.482,-0.16 0.473,-0.123 0.454,-0.091C0.436,-0.059 0.41,-0.034 0.377,-0.016C0.345,0.002 0.307,0.011 0.264,0.011Z" style="fill:rgb(244,185,66);fill-rule:nonzero;"/>
            </g>
            <g transform="matrix(63.635789,0,0,63.635789,332.873424,212.056787)">
                <path d="M0.129,-0L0.129,-0.683L0.26,-0.683L0.26,-0L0.129,-0ZM0.016,-0.368L0.016,-0.483L0.372,-0.483L0.372,-0.368L0.016,-0.368Z" style="fill:rgb(244,185,66);fill-rule:nonzero;"/>
            </g>
            <g transform="matrix(63.635789,0,0,63.635789,356.832299,212.056787)">
                <path d="M0.26,0.214C0.208,0.214 0.163,0.205 0.124,0.186C0.085,0.168 0.053,0.142 0.03,0.109L0.113,0.026C0.131,0.048 0.152,0.065 0.175,0.077C0.198,0.088 0.226,0.094 0.259,0.094C0.3,0.094 0.332,0.083 0.355,0.063C0.379,0.042 0.391,0.014 0.391,-0.022L0.391,-0.144L0.413,-0.249L0.392,-0.356L0.392,-0.483L0.522,-0.483L0.522,-0.025C0.522,0.024 0.511,0.065 0.488,0.101C0.466,0.136 0.435,0.164 0.396,0.184C0.357,0.204 0.311,0.214 0.26,0.214ZM0.254,-0.013C0.211,-0.013 0.172,-0.023 0.137,-0.044C0.103,-0.065 0.075,-0.094 0.056,-0.131C0.036,-0.167 0.026,-0.208 0.026,-0.254C0.026,-0.299 0.036,-0.34 0.056,-0.376C0.075,-0.412 0.103,-0.44 0.137,-0.461C0.172,-0.482 0.211,-0.493 0.254,-0.493C0.29,-0.493 0.322,-0.486 0.349,-0.472C0.377,-0.458 0.399,-0.439 0.415,-0.414C0.431,-0.39 0.439,-0.361 0.441,-0.329L0.441,-0.177C0.439,-0.145 0.431,-0.116 0.414,-0.091C0.398,-0.067 0.376,-0.047 0.348,-0.033C0.321,-0.019 0.289,-0.013 0.254,-0.013ZM0.28,-0.132C0.304,-0.132 0.325,-0.137 0.343,-0.148C0.36,-0.158 0.374,-0.172 0.384,-0.19C0.394,-0.208 0.399,-0.229 0.399,-0.253C0.399,-0.277 0.394,-0.298 0.384,-0.316C0.374,-0.334 0.36,-0.348 0.343,-0.358C0.325,-0.369 0.304,-0.374 0.28,-0.374C0.256,-0.374 0.235,-0.369 0.217,-0.358C0.199,-0.348 0.185,-0.334 0.175,-0.316C0.165,-0.297 0.16,-0.277 0.16,-0.253C0.16,-0.23 0.165,-0.21 0.175,-0.191C0.185,-0.173 0.199,-0.158 0.217,-0.148C0.235,-0.137 0.256,-0.132 0.28,-0.132Z" style="fill:rgb(244,185,66);fill-rule:nonzero;"/>
            </g>
            <g transform="matrix(63.635789,0,0,63.635789,393.693329,212.056787)">
                <path d="M0.289,0.011C0.238,0.011 0.193,-0 0.154,-0.022C0.114,-0.044 0.083,-0.074 0.06,-0.112C0.037,-0.15 0.026,-0.193 0.026,-0.241C0.026,-0.29 0.037,-0.332 0.06,-0.37C0.082,-0.408 0.113,-0.438 0.151,-0.46C0.19,-0.482 0.233,-0.493 0.28,-0.493C0.327,-0.493 0.368,-0.483 0.403,-0.462C0.439,-0.442 0.467,-0.413 0.487,-0.377C0.507,-0.34 0.517,-0.299 0.517,-0.253C0.517,-0.244 0.517,-0.235 0.516,-0.226C0.515,-0.217 0.513,-0.207 0.511,-0.196L0.104,-0.195L0.104,-0.293L0.45,-0.293L0.397,-0.253C0.396,-0.282 0.39,-0.306 0.381,-0.325C0.372,-0.344 0.359,-0.359 0.342,-0.369C0.325,-0.379 0.305,-0.385 0.28,-0.385C0.254,-0.385 0.231,-0.379 0.212,-0.367C0.193,-0.356 0.178,-0.34 0.168,-0.319C0.157,-0.298 0.152,-0.273 0.152,-0.243C0.152,-0.214 0.158,-0.189 0.169,-0.167C0.18,-0.146 0.196,-0.129 0.216,-0.117C0.237,-0.106 0.261,-0.1 0.288,-0.1C0.312,-0.1 0.335,-0.104 0.355,-0.113C0.375,-0.121 0.392,-0.134 0.407,-0.15L0.484,-0.073C0.46,-0.045 0.432,-0.024 0.398,-0.011C0.364,0.004 0.328,0.011 0.289,0.011Z" style="fill:rgb(244,185,66);fill-rule:nonzero;"/>
            </g>
            <g transform="matrix(63.635789,0,0,63.635789,428.104382,212.056787)">
            </g>
        </g>
    </g>
</svg>
