<?xml version="1.0" encoding="UTF-8" standalone="no"?>
<!DOCTYPE svg PUBLIC "-//W3C//DTD SVG 1.1//EN" "http://www.w3.org/Graphics/SVG/1.1/DTD/svg11.dtd">
<svg width="100%" height="100%" viewBox="0 0 1080 134" version="1.1" xmlns="http://www.w3.org/2000/svg" xmlns:xlink="http://www.w3.org/1999/xlink" xml:space="preserve" xmlns:serif="http://www.serif.com/" style="fill-rule:evenodd;clip-rule:evenodd;stroke-linejoin:round;stroke-miterlimit:2;">
    <g transform="matrix(1,0,0,1,-0,-893.847566)">
        <g transform="matrix(5.556173,0,0,5.556173,460.424183,934.00985)">
            <rect x="0" y="0" width="19.824" height="17.998" style="fill-opacity:0;"/>
            <g transform="matrix(0.230306,0,0,0.0633,-104.055311,-55.273148)">
                <rect x="92" y="759" width="844" height="381" style="fill:rgb(78,80,78);"/>
            </g>
        </g>
        <g transform="matrix(5.805289,0,0,5.805289,346.495681,628.7077)">
            <g transform="matrix(0.867919,0,0,0.867919,37.381626,48.603077)">
                <path d="M9.949,19.847C10.447,19.847 10.838,19.456 10.838,18.968L10.838,11.722L13.758,9.027C14.871,9.173 16.043,8.714 17.068,7.689L11.697,2.308C10.662,3.333 10.232,4.486 10.389,5.609L1.307,15.384C0.936,15.785 0.877,16.341 1.336,16.8L0.086,18.412C-0.031,18.568 -0.041,18.792 0.135,18.968L0.418,19.261C0.584,19.427 0.809,19.437 0.984,19.3L2.596,18.04C3.035,18.499 3.602,18.441 3.992,18.07L9.061,13.382L9.061,18.968C9.061,19.456 9.451,19.847 9.949,19.847ZM2.312,16.185L10.926,7.044C11.092,7.328 11.287,7.591 11.531,7.855C11.766,8.099 12.039,8.324 12.293,8.48L3.211,17.083L2.312,16.185ZM12.674,1.322L18.055,6.703C19.773,5.003 19.842,2.826 18.191,1.185C16.551,-0.436 14.393,-0.397 12.674,1.322Z" style="fill:rgb(239,239,239);fill-opacity:0.85;fill-rule:nonzero;"/>
            </g>
        </g>
        <g transform="matrix(1,0,0,1,368.33156,1082.397479)">
            <g transform="matrix(5.301528,0,0,5.301528,560.710624,-171.564945)">
                <path d="M22.402,18.729C22.734,18.974 23.213,18.876 23.477,18.485C25.186,16.015 26.211,12.88 26.211,9.432C26.211,5.975 25.156,2.86 23.477,0.38C23.213,-0.021 22.734,-0.109 22.402,0.136C22.031,0.39 21.982,0.849 22.246,1.249C23.76,3.485 24.717,6.298 24.717,9.432C24.717,12.557 23.76,15.389 22.246,17.616C21.982,18.017 22.031,18.476 22.402,18.729Z" style="fill:rgb(134,134,134);fill-opacity:0.85;fill-rule:nonzero;"/>
                <path d="M18.74,16.142C19.102,16.386 19.551,16.298 19.814,15.927C21.064,14.208 21.797,11.845 21.797,9.432C21.797,7.02 21.074,4.638 19.814,2.938C19.551,2.567 19.102,2.479 18.74,2.724C18.379,2.968 18.32,3.427 18.604,3.827C19.668,5.331 20.283,7.352 20.283,9.432C20.283,11.513 19.648,13.514 18.604,15.038C18.33,15.438 18.379,15.897 18.74,16.142Z" style="fill:rgb(134,134,134);fill-opacity:0.85;fill-rule:nonzero;"/>
                <path d="M15.117,13.593C15.44,13.817 15.898,13.749 16.162,13.368C16.914,12.382 17.363,10.927 17.363,9.432C17.363,7.938 16.914,6.493 16.162,5.497C15.898,5.116 15.44,5.038 15.117,5.272C14.717,5.546 14.658,6.034 14.961,6.434C15.527,7.216 15.85,8.3 15.85,9.432C15.85,10.565 15.518,11.639 14.961,12.431C14.668,12.841 14.717,13.309 15.117,13.593Z" style="fill:rgb(239,239,239);fill-opacity:0.85;fill-rule:nonzero;"/>
                <path d="M10.527,18.055C11.172,18.055 11.631,17.597 11.631,16.962L11.631,1.981C11.631,1.347 11.172,0.829 10.508,0.829C10.049,0.829 9.736,1.024 9.248,1.503L5.078,5.409C5.02,5.468 4.932,5.497 4.834,5.497L2.041,5.497C0.713,5.497 0,6.229 0,7.636L0,11.268C0,12.684 0.713,13.407 2.041,13.407L4.834,13.407C4.932,13.407 5.02,13.436 5.078,13.495L9.248,17.44C9.688,17.87 10.068,18.055 10.527,18.055Z" style="fill:rgb(239,239,239);fill-opacity:0.85;fill-rule:nonzero;"/>
            </g>
        </g>
        <g transform="matrix(6.15756,0,0,6.15756,469.665891,628.7077)">
            <g transform="matrix(1,0,0,1,41.610432,45.812754)">
                <path d="M1.476,6.846C1.671,7.031 1.945,7.031 2.13,6.836C4.533,4.287 7.697,2.939 11.242,2.939C14.806,2.939 17.99,4.297 20.373,6.846C20.548,7.021 20.812,7.012 21.007,6.826L22.355,5.479C22.531,5.303 22.521,5.088 22.384,4.922C20.089,2.09 15.773,0.01 11.242,0.01C6.72,0.01 2.384,2.09 0.099,4.922C-0.038,5.088 -0.038,5.303 0.128,5.479L1.476,6.846Z" style="fill:rgb(239,239,239);fill-opacity:0.85;fill-rule:nonzero;"/>
                <path d="M5.529,10.928C5.744,11.133 6.007,11.104 6.203,10.889C7.375,9.59 9.289,8.643 11.242,8.652C13.214,8.643 15.128,9.619 16.32,10.918C16.496,11.123 16.74,11.113 16.955,10.918L18.468,9.414C18.625,9.258 18.644,9.043 18.498,8.867C17.023,7.061 14.289,5.703 11.242,5.703C8.195,5.703 5.46,7.061 3.986,8.867C3.839,9.043 3.849,9.238 4.015,9.414L5.529,10.928Z" style="fill:rgb(239,239,239);fill-opacity:0.85;fill-rule:nonzero;"/>
                <path d="M11.242,16.24C11.457,16.24 11.642,16.143 12.023,15.771L14.406,13.486C14.552,13.34 14.591,13.125 14.455,12.949C13.82,12.129 12.619,11.416 11.242,11.416C9.826,11.416 8.625,12.158 7.99,13.008C7.892,13.164 7.931,13.34 8.087,13.486L10.46,15.771C10.841,16.133 11.027,16.24 11.242,16.24Z" style="fill:rgb(239,239,239);fill-opacity:0.85;fill-rule:nonzero;"/>
            </g>
        </g>
    </g>
</svg>
