<svg xmlns="http://www.w3.org/2000/svg" version="1.1" xmlns:xlink="http://www.w3.org/1999/xlink" width="1000" height="1000"><style>
    #light-icon {
      display: inline;
    }
    #dark-icon {
      display: none;
    }

    @media (prefers-color-scheme: dark) {
      #light-icon {
        display: none;
      }
      #dark-icon {
        display: inline;
      }
    }
  </style><g id="light-icon"><svg xmlns="http://www.w3.org/2000/svg" version="1.1" xmlns:xlink="http://www.w3.org/1999/xlink" width="1000" height="1000"><g clip-path="url(#SvgjsClipPath2023)"><rect width="1000" height="1000" fill="#191924"></rect><g transform="matrix(4.61133069828722,0,0,4.61133069828722,219.86166007905138,150)"><svg xmlns="http://www.w3.org/2000/svg" version="1.1" xmlns:xlink="http://www.w3.org/1999/xlink" width="121.5" height="151.8"><svg width="121.5" height="151.8" viewBox="0 0 121.5 151.8" version="1.1" xml:space="preserve" style="clip-rule:evenodd;fill-rule:evenodd;stroke-linejoin:round;stroke-miterlimit:2" id="svg9" sodipodi:docname="sputge_favicon.svg" inkscape:version="1.4 (e7c3feb1, 2024-10-09)" xmlns:inkscape="http://www.inkscape.org/namespaces/inkscape" xmlns:sodipodi="http://sodipodi.sourceforge.net/DTD/sodipodi-0.dtd" xmlns="http://www.w3.org/2000/svg" xmlns:svg="http://www.w3.org/2000/svg"><defs id="defs9"><clipPath id="SvgjsClipPath2023"><rect width="1000" height="1000" x="0" y="0" rx="350" ry="350"></rect></clipPath></defs><sodipodi:namedview id="namedview9" pagecolor="#ffffff" bordercolor="#000000" borderopacity="0.25" inkscape:showpageshadow="2" inkscape:pageopacity="0.0" inkscape:pagecheckerboard="0" inkscape:deskcolor="#d1d1d1" inkscape:zoom="1.3590734" inkscape:cx="388.1321" inkscape:cy="90.502841" inkscape:window-width="2560" inkscape:window-height="1319" inkscape:window-x="0" inkscape:window-y="31" inkscape:window-maximized="0" inkscape:current-layer="g8"></sodipodi:namedview>
    <g transform="translate(-211.94377,-225.18751)" id="g9">
        <g transform="matrix(3.928607,0,0,3.928607,-687.98509,-459.40026)" id="g8">
            <g transform="matrix(76.362946,0,0,76.362946,228.00164,212.05679)" id="g1">
                <path d="M 0.224,0.011 C 0.197,0.011 0.17,0.008 0.144,0 0.117,-0.007 0.093,-0.017 0.071,-0.03 0.049,-0.044 0.03,-0.059 0.014,-0.078 l 0.078,-0.079 c 0.017,0.019 0.036,0.033 0.058,0.042 0.022,0.01 0.046,0.015 0.073,0.014 C 0.244,-0.1 0.26,-0.104 0.271,-0.11 0.282,-0.116 0.288,-0.125 0.288,-0.137 0.288,-0.15 0.282,-0.161 0.27,-0.168 0.258,-0.175 0.243,-0.181 0.225,-0.186 0.206,-0.192 0.187,-0.197 0.166,-0.203 0.146,-0.209 0.126,-0.218 0.108,-0.228 0.089,-0.239 0.074,-0.253 0.062,-0.272 0.051,-0.29 0.045,-0.314 0.045,-0.343 c 0,-0.031 0.007,-0.058 0.023,-0.08 0.015,-0.023 0.036,-0.04 0.064,-0.053 0.028,-0.012 0.061,-0.019 0.099,-0.019 0.04,0 0.076,0.007 0.108,0.021 0.033,0.014 0.06,0.035 0.08,0.063 L 0.341,-0.332 C 0.326,-0.35 0.31,-0.363 0.291,-0.371 0.273,-0.379 0.253,-0.383 0.232,-0.383 c -0.019,0 -0.034,0.003 -0.045,0.009 -0.01,0.006 -0.015,0.014 -0.015,0.025 0,0.012 0.006,0.021 0.018,0.028 0.011,0.006 0.026,0.012 0.045,0.017 0.018,0.005 0.038,0.011 0.058,0.017 0.021,0.007 0.04,0.016 0.059,0.027 0.018,0.011 0.033,0.026 0.045,0.045 0.011,0.018 0.017,0.043 0.017,0.072 0,0.048 -0.017,0.085 -0.051,0.113 -0.034,0.027 -0.08,0.041 -0.139,0.041 z" style="fill:#f4b942;fill-rule:nonzero" id="path1"></path>
            </g>
            
            
            
            
            
            <g transform="matrix(63.635789,0,0,63.635789,428.10438,212.05679)" id="g7">
            </g>
        </g>
    </g>
</svg></svg></g></g></svg></g><g id="dark-icon"><svg xmlns="http://www.w3.org/2000/svg" version="1.1" xmlns:xlink="http://www.w3.org/1999/xlink" width="1000" height="1000"><g clip-path="url(#SvgjsClipPath2024)"><rect width="1000" height="1000" fill="#f1f1f1"></rect><g transform="matrix(4.61133069828722,0,0,4.61133069828722,219.86166007905138,150)"><svg xmlns="http://www.w3.org/2000/svg" version="1.1" xmlns:xlink="http://www.w3.org/1999/xlink" width="121.5" height="151.8"><svg width="121.5" height="151.8" viewBox="0 0 121.5 151.8" version="1.1" xml:space="preserve" style="clip-rule:evenodd;fill-rule:evenodd;stroke-linejoin:round;stroke-miterlimit:2" id="svg9" sodipodi:docname="sputge_favicon.svg" inkscape:version="1.4 (e7c3feb1, 2024-10-09)" xmlns:inkscape="http://www.inkscape.org/namespaces/inkscape" xmlns:sodipodi="http://sodipodi.sourceforge.net/DTD/sodipodi-0.dtd" xmlns="http://www.w3.org/2000/svg" xmlns:svg="http://www.w3.org/2000/svg"><defs id="defs9"><clipPath id="SvgjsClipPath2024"><rect width="1000" height="1000" x="0" y="0" rx="350" ry="350"></rect></clipPath></defs><sodipodi:namedview id="namedview9" pagecolor="#ffffff" bordercolor="#000000" borderopacity="0.25" inkscape:showpageshadow="2" inkscape:pageopacity="0.0" inkscape:pagecheckerboard="0" inkscape:deskcolor="#d1d1d1" inkscape:zoom="1.3590734" inkscape:cx="388.1321" inkscape:cy="90.502841" inkscape:window-width="2560" inkscape:window-height="1319" inkscape:window-x="0" inkscape:window-y="31" inkscape:window-maximized="0" inkscape:current-layer="g8"></sodipodi:namedview>
    <g transform="translate(-211.94377,-225.18751)" id="g9">
        <g transform="matrix(3.928607,0,0,3.928607,-687.98509,-459.40026)" id="g8">
            <g transform="matrix(76.362946,0,0,76.362946,228.00164,212.05679)" id="g1">
                <path d="M 0.224,0.011 C 0.197,0.011 0.17,0.008 0.144,0 0.117,-0.007 0.093,-0.017 0.071,-0.03 0.049,-0.044 0.03,-0.059 0.014,-0.078 l 0.078,-0.079 c 0.017,0.019 0.036,0.033 0.058,0.042 0.022,0.01 0.046,0.015 0.073,0.014 C 0.244,-0.1 0.26,-0.104 0.271,-0.11 0.282,-0.116 0.288,-0.125 0.288,-0.137 0.288,-0.15 0.282,-0.161 0.27,-0.168 0.258,-0.175 0.243,-0.181 0.225,-0.186 0.206,-0.192 0.187,-0.197 0.166,-0.203 0.146,-0.209 0.126,-0.218 0.108,-0.228 0.089,-0.239 0.074,-0.253 0.062,-0.272 0.051,-0.29 0.045,-0.314 0.045,-0.343 c 0,-0.031 0.007,-0.058 0.023,-0.08 0.015,-0.023 0.036,-0.04 0.064,-0.053 0.028,-0.012 0.061,-0.019 0.099,-0.019 0.04,0 0.076,0.007 0.108,0.021 0.033,0.014 0.06,0.035 0.08,0.063 L 0.341,-0.332 C 0.326,-0.35 0.31,-0.363 0.291,-0.371 0.273,-0.379 0.253,-0.383 0.232,-0.383 c -0.019,0 -0.034,0.003 -0.045,0.009 -0.01,0.006 -0.015,0.014 -0.015,0.025 0,0.012 0.006,0.021 0.018,0.028 0.011,0.006 0.026,0.012 0.045,0.017 0.018,0.005 0.038,0.011 0.058,0.017 0.021,0.007 0.04,0.016 0.059,0.027 0.018,0.011 0.033,0.026 0.045,0.045 0.011,0.018 0.017,0.043 0.017,0.072 0,0.048 -0.017,0.085 -0.051,0.113 -0.034,0.027 -0.08,0.041 -0.139,0.041 z" style="fill:#f4b942;fill-rule:nonzero" id="path1"></path>
            </g>
            
            
            
            
            
            <g transform="matrix(63.635789,0,0,63.635789,428.10438,212.05679)" id="g7">
            </g>
        </g>
    </g>
</svg></svg></g></g></svg></g></svg>