<?xml version="1.0" encoding="UTF-8" standalone="no"?>
<!-- Created with Inkscape (http://www.inkscape.org/) -->

<svg
   width="264.58334mm"
   height="264.58334mm"
   viewBox="0 0 264.58334 264.58334"
   version="1.1"
   id="svg1"
   xmlns="http://www.w3.org/2000/svg"
   xmlns:svg="http://www.w3.org/2000/svg">
  <defs
     id="defs1">
    <clipPath
       id="SvgjsClipPath2023">
      <rect
         width="1000"
         height="1000"
         x="0"
         y="0"
         rx="350"
         ry="350"
         id="rect2" />
    </clipPath>
  </defs>
  <g
     id="layer1"
     transform="translate(26.077702,-22.195684)">
    <g
       clip-path="url(#SvgjsClipPath2023)"
       id="g4"
       transform="matrix(0.26458333,0,0,0.26458333,-26.077702,22.195684)">
      <rect
         width="1000"
         height="1000"
         fill="#191924"
         id="rect1"
         x="0"
         y="0" />
      <g
         transform="matrix(4.6113307,0,0,4.6113307,219.86166,150)"
         id="g2">
        <svg
           version="1.1"
           width="121.5"
           height="151.8"
           id="svg2">
          <svg
             width="121.5"
             height="151.8"
             viewBox="0 0 121.5 151.8"
             version="1.1"
             xml:space="preserve"
             style="clip-rule:evenodd;fill-rule:evenodd;stroke-linejoin:round;stroke-miterlimit:2"
             id="svg9"><defs
   id="defs9" />
    <g
   transform="translate(-211.94377,-225.18751)"
   id="g9">
        <g
   transform="matrix(3.928607,0,0,3.928607,-687.98509,-459.40026)"
   id="g8">
            <g
   transform="matrix(76.362946,0,0,76.362946,228.00164,212.05679)"
   id="g3">
                <path
   d="M 0.224,0.011 C 0.197,0.011 0.17,0.008 0.144,0 0.117,-0.007 0.093,-0.017 0.071,-0.03 0.049,-0.044 0.03,-0.059 0.014,-0.078 l 0.078,-0.079 c 0.017,0.019 0.036,0.033 0.058,0.042 0.022,0.01 0.046,0.015 0.073,0.014 C 0.244,-0.1 0.26,-0.104 0.271,-0.11 0.282,-0.116 0.288,-0.125 0.288,-0.137 0.288,-0.15 0.282,-0.161 0.27,-0.168 0.258,-0.175 0.243,-0.181 0.225,-0.186 0.206,-0.192 0.187,-0.197 0.166,-0.203 0.146,-0.209 0.126,-0.218 0.108,-0.228 0.089,-0.239 0.074,-0.253 0.062,-0.272 0.051,-0.29 0.045,-0.314 0.045,-0.343 c 0,-0.031 0.007,-0.058 0.023,-0.08 0.015,-0.023 0.036,-0.04 0.064,-0.053 0.028,-0.012 0.061,-0.019 0.099,-0.019 0.04,0 0.076,0.007 0.108,0.021 0.033,0.014 0.06,0.035 0.08,0.063 L 0.341,-0.332 C 0.326,-0.35 0.31,-0.363 0.291,-0.371 0.273,-0.379 0.253,-0.383 0.232,-0.383 c -0.019,0 -0.034,0.003 -0.045,0.009 -0.01,0.006 -0.015,0.014 -0.015,0.025 0,0.012 0.006,0.021 0.018,0.028 0.011,0.006 0.026,0.012 0.045,0.017 0.018,0.005 0.038,0.011 0.058,0.017 0.021,0.007 0.04,0.016 0.059,0.027 0.018,0.011 0.033,0.026 0.045,0.045 0.011,0.018 0.017,0.043 0.017,0.072 0,0.048 -0.017,0.085 -0.051,0.113 -0.034,0.027 -0.08,0.041 -0.139,0.041 z"
   style="fill:#f4b942;fill-rule:nonzero"
   id="path1" />
            </g>
            
            
            
            
            
            <g
   transform="matrix(63.635789,0,0,63.635789,428.10438,212.05679)"
   id="g7">
            </g>
        </g>
    </g>
</svg>
        </svg>
      </g>
    </g>
  </g>
</svg>
